<svg width="30" height="26" viewBox="0 0 30 26" fill="none" xmlns="http://www.w3.org/2000/svg">
<path opacity="0.2" d="M7.29329 6.95149C6.96212 6.5983 6.646 6.22905 6.33741 5.83571L1.8064 0.987305C2.11499 1.38064 2.4311 1.74989 2.76228 2.10308L7.29329 6.95952V6.95149Z" fill="black"/>
<path opacity="0.2" d="M2.55908 7.44141L7.0901 12.2978C7.30837 12.5306 7.54169 12.7393 7.80512 12.94L3.27411 8.08358C3.0182 7.8829 2.77735 7.66617 2.55908 7.44141V7.44141Z" fill="black"/>
<path opacity="0.2" d="M2.51392 11.3027L7.04493 16.1592C7.70727 16.8656 8.5352 17.3392 9.52871 17.58L4.9977 12.7235C4.00418 12.4747 3.17626 12.0091 2.51392 11.3027V11.3027Z" fill="black"/>
<path opacity="0.2" d="M27.9613 6.19655C27.999 6.12431 28.0215 6.05207 28.0592 5.97982C28.1194 5.84336 28.1871 5.71492 28.2323 5.57846C28.2699 5.48214 28.3 5.37778 28.3301 5.27343L23.7991 0.416992C23.7239 0.665834 23.626 0.898622 23.5282 1.12338C23.4981 1.19563 23.4679 1.2759 23.4303 1.34012C23.3475 1.50869 23.2421 1.6612 23.1443 1.81372C23.0841 1.91005 23.0314 2.00637 22.9637 2.09467C22.8432 2.25521 22.7078 2.39168 22.5723 2.53616C22.5045 2.60841 22.4443 2.68868 22.3766 2.7529C22.1583 2.95358 21.925 3.14623 21.6766 3.32283L22.8131 4.54296C22.5723 4.76772 22.339 4.99248 22.0755 5.19316L21.9927 5.36173C22.0078 5.83533 21.9927 6.30893 21.9626 6.78254C21.94 7.0956 21.925 7.40866 21.8798 7.72172C21.8271 8.17124 21.7519 8.62076 21.654 9.06225C21.5938 9.33518 21.5261 9.6081 21.4583 9.88102C21.4282 9.98538 21.4132 10.0897 21.3831 10.1941C21.2777 10.5714 21.1573 10.9406 21.0293 11.3099C20.8863 11.7032 20.7358 12.0965 20.5627 12.4818C20.4046 12.835 20.2315 13.1722 20.0509 13.5093C19.9229 13.7421 19.7874 13.9669 19.652 14.1916C19.5616 14.3361 19.4788 14.4886 19.3885 14.6331C19.2305 14.882 19.0574 15.1228 18.8767 15.3636C18.7939 15.476 18.7262 15.5883 18.6434 15.6927C18.38 16.0298 18.109 16.367 17.8155 16.68C15.979 18.6868 13.7963 20.0113 11.2749 20.6776L7.40618 16.5355C5.93849 16.4874 4.78692 15.8211 3.98157 14.9622L8.51259 19.8187C8.92655 20.2602 9.43836 20.6455 10.0405 20.9344C9.40073 21.0388 8.76097 21.111 8.11368 21.1351C7.96315 21.1351 7.81261 21.1351 7.66208 21.1351C4.9525 21.1351 2.43862 20.3645 0.120426 18.8313L0 18.751L4.53101 23.6075L4.65144 23.6878C6.96211 25.2209 9.47599 25.9916 12.1931 25.9916C12.3436 25.9916 12.4942 25.9916 12.6447 25.9916C13.593 25.9594 14.5188 25.8551 15.4371 25.6384C18.1165 25.0122 20.4272 23.6476 22.3465 21.5445C22.64 21.2234 22.911 20.8943 23.1744 20.5572C23.1744 20.5491 23.1895 20.5411 23.197 20.5331C23.2723 20.4368 23.34 20.3244 23.4077 20.228C23.5808 19.9872 23.754 19.7464 23.9195 19.4976C24.0099 19.3531 24.0927 19.2006 24.183 19.0561C24.3185 18.8313 24.4539 18.6066 24.5819 18.3738C24.5969 18.3417 24.6195 18.3096 24.6421 18.2774C24.8002 17.9724 24.9507 17.6674 25.0937 17.3543C25.2668 16.969 25.4173 16.5757 25.5603 16.1824V16.1583C25.6958 15.797 25.8087 15.4358 25.9141 15.0666C25.9442 14.9622 25.9668 14.8579 25.9894 14.7535C26.0496 14.5127 26.1173 14.2719 26.17 14.0311C26.17 13.999 26.1775 13.9669 26.1851 13.9347C26.2754 13.4933 26.3506 13.0437 26.4108 12.5942C26.441 12.3373 26.4711 12.0805 26.4861 11.8156C26.4861 11.7594 26.4861 11.7032 26.4861 11.647C26.5162 11.1734 26.5313 10.6998 26.5162 10.2262L26.599 10.0576C26.9377 9.79273 27.2614 9.51177 27.5699 9.20674C27.6678 9.11042 27.7506 8.99001 27.8484 8.88566C28.0366 8.67695 28.2398 8.46824 28.4129 8.24348L28.4355 8.2194C28.4355 8.2194 28.4957 8.14716 28.5258 8.10702C28.6989 7.88226 28.8495 7.64947 29.0075 7.40063L27.9463 6.2688C27.9463 6.2688 27.9613 6.23669 27.9689 6.22064L27.9613 6.19655Z" fill="black"/>
<path d="M24.4615 2.52053C24.2808 2.80951 24.1002 3.08243 23.897 3.3393C23.3701 4.03767 22.7529 4.65576 22.068 5.18555L21.9852 5.35412C22.0078 6.14078 21.9777 6.93547 21.8723 7.72214C21.6766 9.38376 21.225 10.9651 20.5552 12.4742C19.8477 14.0315 18.952 15.4443 17.8155 16.6805C15.8887 18.7916 13.5855 20.1482 10.906 20.7743C9.9878 20.983 9.06203 21.0954 8.11368 21.1275C7.96315 21.1275 7.81261 21.1275 7.66208 21.1275C4.95251 21.1275 2.43862 20.3569 0.120426 18.8237L0 18.7434C0.39891 18.7916 0.790293 18.8077 1.17415 18.8077C2.49883 18.8077 3.77083 18.5428 5.01272 18.013C5.87075 17.6357 6.66104 17.1541 7.39865 16.5279C4.80197 16.4396 3.19128 14.4409 2.76979 12.8194C3.07838 12.8836 3.38697 12.9157 3.70309 12.9157C4.10953 12.9157 4.51596 12.8595 4.91487 12.7632L4.99014 12.7231C3.57514 12.3699 2.49883 11.5752 1.76123 10.2748C1.26447 9.41587 1.03114 8.46866 1.03867 7.44119C1.74617 7.84254 2.47625 8.05928 3.26655 8.08336C2.21282 7.27261 1.51285 6.205 1.22684 4.84841C0.948352 3.49182 1.14404 2.19944 1.79886 0.979315C4.47833 4.38283 7.89541 6.25316 12.0802 6.56622C12.0501 6.34949 12.0275 6.16487 11.9974 5.98024C11.8695 4.71998 12.1178 3.55604 12.7651 2.49645C13.5705 1.15591 14.707 0.329114 16.1747 0.0802717C16.4833 0.0240815 16.7919 0 17.0854 0C18.395 0 19.5541 0.53782 20.5476 1.57333C20.6078 1.62952 20.6605 1.66162 20.7283 1.66162C20.7508 1.66162 20.781 1.66162 20.8035 1.6536C21.8347 1.42081 22.8131 1.02748 23.7239 0.465576L23.7916 0.42544C23.4303 1.66162 22.7002 2.62488 21.6616 3.33127C22.64 3.21889 23.5583 2.93794 24.4615 2.52856V2.52053Z" fill="white"/>
</svg>
