<svg width="29" height="29" viewBox="0 0 29 29" fill="none" xmlns="http://www.w3.org/2000/svg">
<path opacity="0.2" d="M11.0297 8.28562C10.8495 8.34044 10.6615 8.39526 10.4892 8.47358C10.3873 8.52057 10.3012 8.57539 10.2072 8.62238C10.0583 8.70852 9.90949 8.79467 9.76849 8.89648C9.68232 8.95913 9.59615 9.02961 9.50998 9.10793C9.38464 9.21757 9.25931 9.33504 9.14964 9.46035C9.11047 9.50734 9.05563 9.54649 9.00863 9.59348C8.96946 9.64047 8.94596 9.68746 8.91463 9.73445C8.85196 9.82059 8.78929 9.90674 8.73445 10.0007C8.69529 10.0634 8.64828 10.1182 8.61695 10.1808C8.57778 10.2513 8.54645 10.3375 8.50728 10.4158C8.47594 10.4784 8.44461 10.5411 8.41328 10.6116C8.39761 10.6507 8.37411 10.6821 8.35844 10.7212C8.29577 10.8935 8.24094 11.0736 8.19394 11.2616V11.2773C8.19394 11.2773 8.19394 11.3164 8.1861 11.3321C8.15477 11.4965 8.12343 11.6688 8.10777 11.849C8.10777 11.9273 8.09993 12.0134 8.09993 12.0917C8.09993 12.2405 8.09993 12.3893 8.1156 12.5381C8.12343 12.6321 8.14693 12.7182 8.1626 12.8122C8.17043 12.867 8.17827 12.9297 8.19394 12.9845C8.24094 13.2038 8.29577 13.4152 8.37411 13.611C8.37411 13.6267 8.38978 13.6424 8.39761 13.658C8.41328 13.6972 8.42894 13.7285 8.44461 13.7677C8.52295 13.9556 8.61695 14.1279 8.72662 14.2924C8.75795 14.3394 8.78929 14.3864 8.82062 14.4333C8.84412 14.4647 8.85979 14.5038 8.88329 14.5352C9.0008 14.6918 9.12613 14.8406 9.26714 14.9815L12.5964 18.3256C12.4241 18.3413 12.2517 18.3569 12.0794 18.3569C11.0062 18.3569 10.0035 18.0906 9.12613 17.6129C8.60128 17.331 8.12343 16.9707 7.70825 16.5478L12.4241 21.2859C13.5365 22.4058 15.0797 23.095 16.7952 23.095C17.0302 23.095 17.2574 23.0793 17.4768 23.0558C17.5473 23.048 17.6178 23.0323 17.6961 23.0245C17.8449 23.001 17.9938 22.9775 18.1426 22.9462C18.2288 22.9305 18.3071 22.907 18.3933 22.8835C18.5265 22.8522 18.6596 22.813 18.785 22.766C18.8711 22.7347 18.9495 22.7034 19.0356 22.6721C19.161 22.6251 19.2785 22.5781 19.396 22.5233C19.4743 22.4841 19.5605 22.445 19.6388 22.4058C19.7563 22.3431 19.8738 22.2805 19.9835 22.21C20.054 22.163 20.1323 22.1239 20.2028 22.0769C20.3204 21.9986 20.4379 21.9202 20.5475 21.8341C20.6102 21.7871 20.665 21.748 20.7277 21.701C20.8687 21.5835 21.0097 21.466 21.1429 21.3329C21.1664 21.3094 21.1899 21.2937 21.2134 21.2702C21.3622 21.1214 21.5111 20.957 21.6442 20.7925C21.6442 20.7847 21.6599 20.7768 21.6677 20.769C21.6834 20.7534 21.6912 20.7377 21.6991 20.722C21.9027 20.4636 22.0986 20.1895 22.2631 19.8997C22.2631 19.8919 22.2788 19.8762 22.2866 19.8684V19.8527C22.4276 19.6178 22.5373 19.375 22.6391 19.1244C22.6469 19.0931 22.6704 19.0696 22.6783 19.0383C22.6939 19.0069 22.7018 18.9678 22.7096 18.9286C22.7801 18.725 22.8428 18.5135 22.8976 18.3021C22.9054 18.2708 22.9211 18.2394 22.9289 18.2003C22.9289 18.1925 22.9289 18.1768 22.9289 18.169C22.9838 17.9105 23.0229 17.6443 23.0464 17.378C23.0464 17.3545 23.0543 17.331 23.0543 17.2997C23.0621 17.1587 23.0699 17.0099 23.0699 16.8611C23.0699 16.6497 23.0699 16.4382 23.0464 16.2268C23.0229 15.9605 22.9759 15.7099 22.9211 15.4593C22.9054 15.3888 22.8898 15.3183 22.8663 15.2478C22.8193 15.052 22.7566 14.8641 22.6861 14.6839C22.6704 14.6448 22.6626 14.6056 22.6469 14.5586C22.6469 14.543 22.6313 14.5195 22.6234 14.5038C22.5294 14.2767 22.4276 14.0574 22.3101 13.8381C22.2866 13.799 22.2631 13.7598 22.2396 13.7207C22.1377 13.5484 22.0281 13.3761 21.9184 13.2116C21.8949 13.1803 21.8792 13.149 21.8636 13.1177C21.8401 13.0942 21.8166 13.0707 21.8009 13.0393C21.6364 12.8279 21.4641 12.6243 21.2761 12.4285L16.5602 7.69043C16.7482 7.87839 16.9206 8.08984 17.0851 8.30129C17.1242 8.35611 17.1712 8.41093 17.2104 8.46575C17.3279 8.63021 17.4376 8.79467 17.5394 8.97479C17.5629 9.01395 17.5864 9.05311 17.6099 9.09227C17.7274 9.30372 17.8293 9.53083 17.9233 9.75794C17.9468 9.81276 17.9624 9.87542 17.9859 9.93024C18.0564 10.1182 18.1113 10.3061 18.1661 10.4941C18.1818 10.5646 18.2053 10.6351 18.2209 10.7056C18.2758 10.9562 18.3228 11.2068 18.3463 11.473C18.362 11.6845 18.3776 11.8959 18.3698 12.1074C18.3698 12.2719 18.3541 12.4285 18.3385 12.5929L15.0013 9.24106C14.2885 8.5284 13.3014 8.082 12.2047 8.07417H12.1656C11.8679 8.07417 11.5781 8.11333 11.296 8.17598C11.202 8.19948 11.1159 8.2308 11.0297 8.2543V8.28562ZM13.6383 14.4803C13.7088 14.3864 13.795 14.2924 13.8733 14.2062C13.983 14.0809 14.1083 13.9635 14.2336 13.8538C14.3198 13.7833 14.406 13.7128 14.4922 13.6424C14.6332 13.5406 14.782 13.4544 14.9308 13.3683C15.0248 13.3134 15.1188 13.2586 15.2128 13.2195C15.3852 13.1411 15.5654 13.0863 15.7534 13.0315C15.8395 13.008 15.9257 12.9689 16.0197 12.9532C16.3017 12.8905 16.5916 12.8514 16.8892 12.8514H16.9284C17.4063 12.8514 17.8528 12.9532 18.2679 13.1098C18.2523 13.2195 18.2444 13.3369 18.2131 13.4544C18.2053 13.5014 18.1896 13.5406 18.1818 13.5875C18.1269 13.799 18.0643 14.0104 17.9938 14.2141C17.9703 14.2767 17.9468 14.3472 17.9233 14.4098C17.8214 14.6605 17.7118 14.9111 17.5786 15.146C17.5708 15.1617 17.5629 15.1773 17.5473 15.193C17.3828 15.4828 17.1947 15.7569 16.9832 16.0153C16.9676 16.0388 16.9519 16.0623 16.9284 16.0858C16.7952 16.2502 16.6464 16.4147 16.4976 16.5635C16.4741 16.587 16.4506 16.6027 16.4349 16.6262C16.3017 16.7515 16.1607 16.8768 16.0197 16.9942C15.9649 17.0412 15.9022 17.0804 15.8395 17.1274C15.722 17.2135 15.6124 17.2997 15.4949 17.378C15.4244 17.425 15.3538 17.4641 15.2755 17.5111C15.158 17.5816 15.0483 17.6443 14.9308 17.7069C14.8525 17.7461 14.7742 17.7852 14.6958 17.8244C14.5783 17.8792 14.453 17.9262 14.3355 17.981C14.2493 18.0123 14.171 18.0437 14.0848 18.075C13.9595 18.1141 13.8263 18.1533 13.6931 18.1925C13.607 18.2159 13.5286 18.2394 13.4424 18.2551C13.3249 18.2786 13.2074 18.2943 13.0899 18.3178C13.0273 18.1376 12.9646 17.9575 12.9254 17.7617C12.9176 17.7069 12.9098 17.6443 12.8941 17.5894C12.8549 17.3545 12.8314 17.1195 12.8314 16.8768C12.8314 16.6183 12.8706 16.3599 12.9176 16.1171C12.9176 16.1014 12.9176 16.078 12.9254 16.0623C12.9803 15.8352 13.0508 15.6159 13.1448 15.3966C13.1761 15.334 13.2074 15.2635 13.2388 15.2008C13.3093 15.0599 13.3876 14.9267 13.466 14.7936C13.5208 14.6996 13.5835 14.6135 13.6461 14.5273L13.6383 14.4803Z" fill="black"/>
<path opacity="0.2" d="M6.66645 26.9402C7.45764 27.7312 8.49951 28.3029 9.78422 28.6319C10.7556 28.8825 13.6384 28.9921 16.529 28.9921C19.4196 28.9921 22.177 28.8903 23.2267 28.718C23.6262 28.6553 23.9944 28.5614 24.3547 28.4517C24.4644 28.4204 24.5741 28.3734 24.6759 28.3343C24.9187 28.2481 25.1459 28.1463 25.3653 28.0367C25.4749 27.9818 25.5846 27.9192 25.6943 27.8565C25.8979 27.7391 26.0938 27.6059 26.2818 27.4571C26.3758 27.3866 26.462 27.324 26.5481 27.2535C26.7753 27.0577 26.979 26.8463 27.1748 26.6192C27.1983 26.5878 27.2375 26.5643 27.261 26.533C27.261 26.533 27.261 26.5173 27.2688 26.5173C27.4803 26.2589 27.6683 25.977 27.8407 25.6794C27.8407 25.6637 27.8563 25.6559 27.8642 25.6402C27.9112 25.5541 27.9504 25.4444 27.9974 25.3583C28.0914 25.1625 28.1932 24.9667 28.2794 24.7553C28.2872 24.7239 28.3029 24.7004 28.3185 24.6769C28.4125 24.4185 28.5065 24.1522 28.577 23.8703C28.5927 23.8155 28.6005 23.7607 28.6162 23.7058C28.6319 23.6197 28.6475 23.5257 28.671 23.4317C28.671 23.4161 28.671 23.4004 28.6789 23.3848C28.7024 23.2203 28.7259 23.0402 28.7494 22.8444C28.7494 22.7974 28.7572 22.7426 28.765 22.6956C28.7885 22.5076 28.8042 22.3118 28.8199 22.1004C28.8199 22.0769 28.8199 22.0534 28.8199 22.0299V22.0064C28.8434 21.7715 28.859 21.5209 28.8669 21.2624C28.8669 21.1841 28.8747 21.098 28.8825 21.0118C28.8904 20.816 28.8982 20.6202 28.9139 20.4166C28.9139 20.3148 28.9217 20.2052 28.9296 20.1034C28.9296 19.9076 28.9452 19.704 28.9452 19.5082C28.9452 19.4064 28.9452 19.2967 28.9531 19.1949C28.9531 18.9521 28.9609 18.7094 28.9687 18.4587C28.9687 18.3961 28.9687 18.3334 28.9687 18.2708C28.9687 17.9575 28.9766 17.6443 28.9766 17.3232C28.9766 17.237 28.9766 17.1509 28.9766 17.0647C28.9766 16.8298 28.9766 16.6027 28.9766 16.3677C28.9766 16.2581 28.9766 16.1485 28.9766 16.0388C28.9766 15.8274 28.9766 15.6159 28.9766 15.4123C28.9766 15.3105 28.9766 15.2087 28.9766 15.1069C28.9766 14.8719 28.9766 14.637 28.9687 14.4099C28.9687 14.3472 28.9687 14.2846 28.9687 14.2219C28.9687 13.9321 28.9609 13.658 28.9531 13.3918C28.9531 13.337 28.9531 13.29 28.9531 13.2351C28.9531 13.0237 28.9452 12.8279 28.9374 12.6321C28.9374 12.5538 28.9374 12.4833 28.9374 12.4128C28.9374 12.2562 28.9295 12.0996 28.9217 11.9586C28.9217 11.8881 28.9217 11.8255 28.9139 11.755C28.9139 11.6062 28.8982 11.4731 28.8904 11.3478C28.8904 11.3086 28.8904 11.2616 28.8904 11.2225C28.8826 11.0737 28.8747 10.9405 28.859 10.8309V10.8074C28.8199 10.4471 28.7572 10.0947 28.6789 9.75796C28.6554 9.64832 28.6162 9.54651 28.5849 9.43687C28.5379 9.26458 28.4909 9.08445 28.4282 8.91999C28.4047 8.86517 28.3734 8.81035 28.3499 8.7477C28.3107 8.65372 28.2637 8.56758 28.2245 8.4736C28.1149 8.24648 27.9974 8.03503 27.8642 7.82358C27.8172 7.74527 27.7702 7.66695 27.7153 7.58864C27.6918 7.54948 27.6683 7.51032 27.637 7.47117C27.4568 7.22839 27.261 7.00128 27.0417 6.782L22.3258 2.04395C22.5765 2.30238 22.7958 2.56866 22.9995 2.85059C23.0543 2.9289 23.1013 3.00722 23.1484 3.08553C23.2815 3.29698 23.4069 3.51627 23.5165 3.74338C23.5557 3.83736 23.6027 3.9235 23.6419 4.01748C23.7359 4.23676 23.8064 4.47171 23.8769 4.70665C23.9082 4.81629 23.9474 4.9181 23.9709 5.02774C24.0492 5.37233 24.1119 5.71691 24.1511 6.07716C24.1589 6.1868 24.1746 6.32777 24.1824 6.49223C24.1824 6.53922 24.1824 6.59404 24.1902 6.64103C24.1902 6.7585 24.2059 6.88381 24.2137 7.02477V7.04044L20.7826 3.59458C20.1716 2.98372 19.3491 2.57649 18.3307 2.41986C17.2888 2.26323 14.7664 2.19274 12.2596 2.19274C9.75289 2.19274 7.43414 2.2554 6.37661 2.37287C6.08676 2.40419 5.80475 2.46685 5.54624 2.53733C5.46007 2.56082 5.38174 2.59215 5.3034 2.62348C5.13106 2.68613 4.95872 2.74878 4.79422 2.81926C4.70805 2.85842 4.62188 2.90541 4.54354 2.9524C4.40254 3.03071 4.26153 3.12469 4.1362 3.21867C4.05786 3.27349 3.98736 3.32831 3.90902 3.39096C3.78368 3.5006 3.66618 3.61807 3.55651 3.74338C3.51734 3.79037 3.46251 3.82169 3.42334 3.87651C3.40767 3.90001 3.392 3.9235 3.37634 3.947C3.30583 4.03314 3.251 4.13495 3.18833 4.22893C3.14133 4.30725 3.08649 4.3699 3.03949 4.44821C3.02382 4.47171 3.01599 4.50303 3.00032 4.53436C2.96116 4.61267 2.92199 4.69882 2.89065 4.77713C2.85148 4.86328 2.80448 4.9416 2.77315 5.02774C2.75748 5.07473 2.74965 5.12172 2.73398 5.16088C2.70265 5.25486 2.67131 5.35666 2.64781 5.45847C2.62431 5.53679 2.60081 5.60727 2.57731 5.68559C2.55381 5.79523 2.53031 5.9127 2.51464 6.03017C2.49114 6.16331 2.47547 6.32777 2.45197 6.50006C2.45197 6.56271 2.44414 6.6332 2.4363 6.69585C2.42847 6.80549 2.4128 6.91513 2.40497 7.04044V7.09526C2.39714 7.15791 2.3893 7.22056 2.3893 7.28321C2.38147 7.43201 2.3658 7.58864 2.35797 7.7531C2.35797 7.83142 2.35013 7.91756 2.3423 8.00371C2.33447 8.16034 2.32663 8.3248 2.3188 8.49709C2.3188 8.59107 2.3188 8.68505 2.31097 8.77903C2.31097 8.95915 2.2953 9.14711 2.2953 9.33506C2.2953 9.42121 2.2953 9.50735 2.28747 9.5935C2.28747 9.8676 2.2718 10.1495 2.26396 10.4315C2.26396 10.4785 2.26396 10.5333 2.26396 10.5881C2.26396 10.823 2.25613 11.0658 2.25613 11.3086C2.25613 11.4182 2.25613 11.52 2.25613 11.6297C2.25613 11.8176 2.25613 12.0056 2.25613 12.1936C2.25613 12.311 2.25613 12.4285 2.25613 12.546C2.25613 12.7418 2.25613 12.9297 2.25613 13.1177C2.25613 13.2195 2.25613 13.3213 2.25613 13.4231C2.25613 13.6737 2.25613 13.9165 2.25613 14.1593C2.25613 14.1984 2.25613 14.2376 2.25613 14.2767C2.25613 14.5587 2.25613 14.8328 2.2718 15.099C2.2718 15.1695 2.2718 15.24 2.2718 15.3105C2.2718 15.4984 2.27963 15.6864 2.28747 15.8665C2.28747 15.9527 2.28747 16.031 2.28747 16.1171C2.28747 16.2738 2.2953 16.4304 2.30313 16.5792C2.30313 16.6575 2.30313 16.7358 2.31097 16.8063C2.31097 16.9629 2.32663 17.1039 2.33447 17.2449C2.33447 17.2997 2.33447 17.3545 2.3423 17.4015C2.35013 17.5738 2.3658 17.7382 2.37363 17.8714C2.3893 18.0437 2.40497 18.1768 2.42064 18.2865C2.47547 18.6232 2.56164 18.9286 2.66348 19.2184C2.67915 19.2576 2.67915 19.2967 2.69481 19.3359C2.70265 19.3672 2.72615 19.3907 2.74181 19.4142C2.85932 19.704 3.00816 19.9781 3.1805 20.2287C3.18833 20.2365 3.18833 20.2522 3.204 20.2678C3.30583 20.4088 3.42334 20.5419 3.54868 20.6672L7.01113 24.1366C6.15727 24.0818 5.47574 24.0034 5.0919 23.9095C4.77072 23.8233 4.46521 23.7293 4.17536 23.6197C3.30583 23.2829 2.56947 22.8131 1.97412 22.2179L6.68995 26.9559L6.66645 26.9402ZM24.2059 7.50249C24.2059 7.56515 24.2059 7.61997 24.2059 7.67479C24.2059 7.7531 24.2059 7.83925 24.2137 7.91756C24.2137 8.09769 24.2216 8.27781 24.2294 8.4736C24.2294 8.54408 24.2294 8.60673 24.2294 8.67722C24.2294 8.84951 24.2294 9.03747 24.2372 9.21759L22.0986 7.07176C22.4668 7.09526 22.7802 7.12658 23.0152 7.16574C23.446 7.23622 23.8299 7.3537 24.1981 7.51032L24.2059 7.50249ZM19.3021 6.95429C19.3021 6.95429 19.255 6.98561 19.2315 7.00128C19.208 7.00911 19.1845 7.01694 19.161 7.02477C18.9965 7.08742 18.8242 7.12658 18.6362 7.12658C18.3855 7.12658 18.1662 7.04044 17.9625 6.93079C18.4169 6.93079 18.8634 6.93863 19.3021 6.94646V6.95429ZM16.952 6.93079C17.2496 6.93079 17.5473 6.93079 17.845 6.93079L22.3337 11.4339C22.5922 11.6923 22.9525 11.8568 23.352 11.8646C23.54 11.8646 23.7124 11.8255 23.8769 11.7628C23.9004 11.755 23.9239 11.7472 23.9474 11.7393C24.0649 11.6923 24.1746 11.6297 24.2686 11.5514V11.6454C24.2686 11.8646 24.2686 12.0839 24.2686 12.311C24.2686 12.4128 24.2686 12.5068 24.2686 12.6086C24.2686 12.9219 24.2686 13.2351 24.2607 13.5406C24.2607 13.6032 24.2607 13.6659 24.2607 13.7207C24.2607 13.9713 24.2529 14.2219 24.2451 14.4725C24.2451 14.5743 24.2451 14.6761 24.2372 14.7779C24.2372 14.9816 24.2216 15.1852 24.2137 15.3888C24.2137 15.4906 24.2137 15.5924 24.2059 15.6942C24.1981 15.8978 24.1902 16.1015 24.1746 16.2973C24.1746 16.3756 24.1667 16.4617 24.1589 16.54C24.1432 16.8063 24.1276 17.0647 24.1119 17.3075C24.1119 17.331 24.1119 17.3545 24.1119 17.378C24.0962 17.5895 24.0727 17.7852 24.057 17.9732C24.057 18.028 24.0492 18.075 24.0414 18.122C24.0179 18.3178 23.9944 18.5057 23.9709 18.6624C23.9709 18.678 23.9709 18.6937 23.963 18.7094C23.9317 18.8738 23.9082 19.0304 23.869 19.1479C23.7829 19.4612 23.681 19.7509 23.5714 20.0329C23.4852 20.2443 23.3912 20.4401 23.2972 20.6281C23.2424 20.7377 23.1954 20.8552 23.1405 20.957C22.9682 21.2546 22.7802 21.5365 22.5687 21.795C22.5373 21.8341 22.4982 21.8654 22.4668 21.8968C22.271 22.1239 22.0673 22.3353 21.8401 22.5311C21.754 22.6016 21.66 22.6721 21.5738 22.7347C21.3858 22.8757 21.19 23.0088 20.9863 23.1341C20.8766 23.1968 20.7669 23.2594 20.6573 23.3143C20.4379 23.4239 20.2029 23.5257 19.9679 23.6119C19.8582 23.651 19.7564 23.698 19.6467 23.7293C19.2864 23.839 18.9182 23.933 18.5187 23.9956C17.469 24.1679 14.6489 24.2697 11.821 24.2697C10.2621 24.2697 8.71102 24.2384 7.45764 24.1679C7.43414 24.0896 7.40281 24.0269 7.37931 23.9565C7.27747 23.6667 7.18347 23.3534 7.13647 23.0245C7.1208 22.9149 7.10513 22.7817 7.08946 22.6173C7.0738 22.4763 7.06596 22.3118 7.0503 22.1317C7.0503 22.0847 7.0503 22.0221 7.04246 21.9751C7.04246 21.8419 7.0268 21.701 7.01896 21.5444C7.01896 21.466 7.01896 21.3877 7.01113 21.3094C7.01113 21.1684 7.00329 21.0118 6.99546 20.8552C6.99546 20.769 6.99546 20.6829 6.98763 20.5967C6.98763 20.4244 6.97979 20.2522 6.97196 20.072C6.97196 19.9859 6.97196 19.9076 6.97196 19.8214C6.97196 19.563 6.96413 19.2967 6.95629 19.0226C6.95629 18.9678 6.95629 18.9051 6.95629 18.8425C6.95629 18.6154 6.95629 18.3883 6.95629 18.1533C6.95629 18.0515 6.95629 17.9575 6.95629 17.8557C6.95629 17.6599 6.95629 17.4641 6.95629 17.2605C6.95629 17.1587 6.95629 17.0491 6.95629 16.9473C6.95629 16.7436 6.95629 16.54 6.95629 16.3364C6.95629 16.2424 6.95629 16.1485 6.95629 16.0545C6.95629 15.8039 6.95629 15.5611 6.96413 15.3105C6.96413 15.2635 6.96413 15.2165 6.96413 15.1695C6.96413 14.8798 6.97979 14.5978 6.98763 14.3237C6.98763 14.2454 6.98763 14.1749 6.98763 14.1044C6.98763 13.9008 7.00329 13.705 7.01113 13.5171C7.01113 13.4309 7.01113 13.3448 7.01896 13.2586C7.01896 13.0863 7.03463 12.9219 7.04246 12.7574C7.04246 12.6713 7.0503 12.593 7.05813 12.5068C7.06596 12.3345 7.08163 12.1779 7.08946 12.0213C7.08946 11.9664 7.08946 11.9038 7.0973 11.849C7.10513 11.7002 7.1208 11.5749 7.12863 11.4417C7.12863 11.3791 7.13647 11.3086 7.1443 11.2538C7.15997 11.0737 7.18347 10.917 7.20697 10.7839C7.2383 10.5881 7.29314 10.4001 7.34014 10.22C7.37147 10.1182 7.39497 10.0164 7.42631 9.92242C7.47331 9.78929 7.52815 9.66398 7.58298 9.53868C7.62215 9.46037 7.65348 9.37422 7.69265 9.2959C7.74749 9.18626 7.81799 9.09229 7.88066 8.99048C7.94333 8.8965 8.006 8.79469 8.06866 8.70854C8.1235 8.63806 8.18617 8.57541 8.24884 8.51276C8.35851 8.38745 8.47601 8.26998 8.60135 8.16034C8.67185 8.09769 8.75019 8.04287 8.82852 7.98805C8.9617 7.89407 9.09487 7.80792 9.23587 7.72177C9.32204 7.67479 9.40038 7.6278 9.48655 7.58864C9.65105 7.51032 9.81556 7.44767 9.99573 7.39285C10.0741 7.36153 10.1524 7.3302 10.2386 7.30671C10.5049 7.23622 10.7791 7.17357 11.0689 7.14224C12.1265 7.02477 14.5314 6.96212 16.952 6.96212V6.93079Z" fill="black"/>
<path d="M18.6595 4.2207H18.6752C19.4742 4.2207 20.1244 4.87072 20.1166 5.68519C20.1166 6.484 19.4507 7.13402 18.6438 7.13402C17.837 7.12619 17.1946 6.46834 17.2025 5.66953C17.2025 4.86289 17.8605 4.2207 18.6595 4.2207V4.2207Z" fill="white"/>
<path d="M24.1274 6.0929C24.3076 8.00378 24.4251 17.0257 23.8611 19.1402C23.1091 21.9047 21.2995 23.5415 18.5029 23.9957C17.4532 24.168 14.6331 24.2698 11.8052 24.2698C8.97724 24.2698 6.03181 24.1601 5.06044 23.9095C2.31085 23.1969 0.665791 21.4035 0.227109 18.6154C-0.0940688 16.5636 -0.125403 7.05617 0.462117 4.98866C1.23764 2.30246 3.03154 0.720497 5.7498 0.274102C6.97968 0.0704834 9.39243 0 11.8287 0C14.0926 0 16.38 0.0626519 17.7587 0.133135C19.4273 0.219282 20.947 0.759654 22.1925 1.94221C23.3754 3.06994 23.9786 4.48744 24.1274 6.08507V6.0929ZM21.793 18.216C22.1377 16.0859 22.1377 8.29355 21.9419 6.29652C21.7225 4.16635 20.4221 2.75668 18.3071 2.42776C17.2652 2.27113 14.7428 2.20065 12.236 2.20065C9.72927 2.20065 7.41052 2.2633 6.35299 2.38077C4.23791 2.62355 2.8122 3.93141 2.47535 6.03808C2.13067 8.27005 2.13067 16.6106 2.38918 18.2865C2.65553 20.0329 3.64256 21.2312 5.38162 21.7167C6.32165 21.983 9.14175 22.077 11.907 22.077C14.4529 22.077 16.9519 21.9986 17.8919 21.8968C20.0305 21.6619 21.4405 20.3462 21.7774 18.2239" fill="white"/>
<path d="M12.1892 5.9131C15.6203 5.9131 18.3856 8.70111 18.3621 12.1391C18.3386 15.5693 15.5263 18.3573 12.0873 18.3573C8.64838 18.3573 5.89095 15.5693 5.91446 12.1313C5.93796 8.69328 8.75022 5.90527 12.1892 5.9131V5.9131ZM12.0952 16.1567C14.3042 16.1567 16.1138 14.3789 16.153 12.1705C16.1921 9.93849 14.4217 8.12941 12.197 8.10592H12.1578C9.94876 8.10592 8.1392 9.88367 8.10003 12.0921C8.06086 14.3163 9.83126 16.1332 12.056 16.1567H12.0952Z" fill="white"/>
</svg>
