<svg width="26" height="24" viewBox="0 0 26 24" fill="none" xmlns="http://www.w3.org/2000/svg">
<path d="M9.33333 17.3333V6.66667C9.33333 5.2 10.52 4 12 4H24V2.66667C24 1.2 22.8 0 21.3333 0H2.66667C1.18667 0 0 1.2 0 2.66667V21.3333C0 22.8 1.18667 24 2.66667 24H21.3333C22.8 24 24 22.8 24 21.3333V20H12C10.52 20 9.33333 18.8 9.33333 17.3333ZM13.3333 6.66667C12.6 6.66667 12 7.26667 12 8V16C12 16.7333 12.6 17.3333 13.3333 17.3333H25.3333V6.66667H13.3333ZM17.3333 14C16.2267 14 15.3333 13.1067 15.3333 12C15.3333 10.8933 16.2267 10 17.3333 10C18.44 10 19.3333 10.8933 19.3333 12C19.3333 13.1067 18.44 14 17.3333 14Z" fill="#EDBB5B"/>
</svg>
