<svg width="28" height="28" viewBox="0 0 28 28" fill="none" xmlns="http://www.w3.org/2000/svg">
<path d="M13.9998 0.666504C6.6265 0.666504 0.666504 6.6265 0.666504 13.9998C0.666504 21.3732 6.6265 27.3332 13.9998 27.3332C21.3732 27.3332 27.3332 21.3732 27.3332 13.9998C27.3332 6.6265 21.3732 0.666504 13.9998 0.666504ZM19.7332 19.7332C19.2132 20.2532 18.3732 20.2532 17.8532 19.7332L13.9998 15.8798L10.1465 19.7332C9.6265 20.2532 8.7865 20.2532 8.2665 19.7332C7.7465 19.2132 7.7465 18.3732 8.2665 17.8532L12.1198 13.9998L8.2665 10.1465C7.7465 9.6265 7.7465 8.7865 8.2665 8.2665C8.7865 7.7465 9.6265 7.7465 10.1465 8.2665L13.9998 12.1198L17.8532 8.2665C18.3732 7.7465 19.2132 7.7465 19.7332 8.2665C20.2532 8.7865 20.2532 9.6265 19.7332 10.1465L15.8798 13.9998L19.7332 17.8532C20.2398 18.3598 20.2398 19.2132 19.7332 19.7332Z" fill="white"/>
</svg>
