<svg width="28" height="28" viewBox="0 0 28 28" fill="none" xmlns="http://www.w3.org/2000/svg">
<path d="M26.6 1.41994C25.82 0.639942 24.56 0.639942 23.78 1.41994L13.9999 11.1799L4.21994 1.39994C3.43994 0.619941 2.17994 0.619941 1.39994 1.39994C0.619941 2.17994 0.619941 3.43994 1.39994 4.21994L11.1799 13.9999L1.39994 23.78C0.619941 24.56 0.619941 25.82 1.39994 26.6C2.17994 27.38 3.43994 27.38 4.21994 26.6L13.9999 16.8199L23.78 26.6C24.56 27.38 25.82 27.38 26.6 26.6C27.38 25.82 27.38 24.56 26.6 23.78L16.8199 13.9999L26.6 4.21994C27.36 3.45994 27.36 2.17994 26.6 1.41994V1.41994Z" fill="white"/>
</svg>
