<svg width="452" height="97" viewBox="0 0 452 97" fill="none" xmlns="http://www.w3.org/2000/svg">
<path d="M243.89 14.9602C228.38 14.9602 215.72 27.0302 214.71 42.2802H214.61L214.61 92.6299H234.13V71.8102C237.19 72.8902 240.46 73.5102 243.89 73.5102C260.06 73.5102 273.17 60.4002 273.17 44.2302C273.17 28.0602 260.06 14.9502 243.89 14.9502V14.9602ZM243.89 54.0002C238.5 54.0002 234.13 49.6302 234.13 44.2402C234.13 38.8502 238.5 34.4802 243.89 34.4802C249.28 34.4802 253.65 38.8502 253.65 44.2402C253.65 49.6302 249.28 54.0002 243.89 54.0002Z" fill="white"/>
<path d="M173.89 14.9602C158.38 14.9602 145.72 27.0302 144.71 42.2802H144.61L144.61 92.6299H164.13V71.8102C167.19 72.8902 170.46 73.5102 173.89 73.5102C190.06 73.5102 203.17 60.4002 203.17 44.2302C203.17 28.0602 190.06 14.9502 173.89 14.9502V14.9602ZM173.89 54.0002C168.5 54.0002 164.13 49.6302 164.13 44.2402C164.13 38.8502 168.5 34.4802 173.89 34.4802C179.28 34.4802 183.65 38.8502 183.65 44.2402C183.65 49.6302 179.28 54.0002 173.89 54.0002Z" fill="white"/>
<path d="M29.28 14.9602C13.77 14.9602 1.11 27.0302 0.1 42.2802H0L0 92.6299H19.52V71.8102C22.58 72.8902 25.85 73.5102 29.28 73.5102C45.45 73.5102 58.56 60.4002 58.56 44.2302C58.56 28.0602 45.45 14.9502 29.28 14.9502V14.9602ZM29.28 54.0002C23.89 54.0002 19.52 49.6302 19.52 44.2402C19.52 38.8502 23.89 34.4802 29.28 34.4802C34.67 34.4802 39.04 38.8502 39.04 44.2402C39.04 49.6302 34.67 54.0002 29.28 54.0002Z" fill="white"/>
<path d="M296.11 33.6299C302.461 33.6299 307.61 28.705 307.61 22.6299C307.61 16.5547 302.461 11.6299 296.11 11.6299C289.759 11.6299 284.61 16.5547 284.61 22.6299C284.61 28.705 289.759 33.6299 296.11 33.6299Z" fill="white"/>
<path d="M305.1 42.2803H285.58V87.1703H305.1V42.2803Z" fill="white"/>
<path d="M130.7 61.2201V59.3701C130.7 60.0001 130.64 60.6101 130.6 61.2201H130.7Z" fill="white"/>
<path d="M72.15 61.2201H72.25C72.21 60.6001 72.15 59.9901 72.15 59.3701V61.2201Z" fill="white"/>
<path d="M111.18 21.6299V59.3698C111.18 64.4898 106.81 68.6398 101.42 68.6398C96.03 68.6398 91.66 64.4898 91.66 59.3698V21.6299H72.14V59.3698C72.14 59.9998 72.2 60.6098 72.24 61.2198C73.25 75.7098 85.91 87.1698 101.42 87.1698C116.93 87.1698 129.59 75.7098 130.6 61.2198C130.64 60.5998 130.7 59.9898 130.7 59.3698V21.6299H111.18Z" fill="white"/>
<path d="M321.69 43.8193V45.6993C321.69 45.0593 321.75 44.4393 321.79 43.8193H321.69Z" fill="white"/>
<path d="M380.24 43.8193H380.14C380.18 44.4493 380.24 45.0693 380.24 45.6993V43.8193Z" fill="white"/>
<path d="M342.2 86.8301V49.8999C342.2 44.6899 346.57 40.4799 351.96 40.4799C357.35 40.4799 361.72 44.6999 361.72 49.8999V86.8301H381.24V49.8999C381.24 49.2599 381.18 48.6399 381.14 48.0199C380.13 33.2899 367.47 21.6299 351.96 21.6299C336.45 21.6299 323.79 33.2899 322.78 48.0199C322.74 48.6499 322.68 49.2699 322.68 49.8999V86.8301H342.2Z" fill="white"/>
<path d="M433.98 13.07C430.82 11.83 427.4 11.12 423.8 11.12C420.2 11.12 416.77 11.81 413.62 13.06C411.23 6.96 404.58 2.07 395.99 0V16.59C396.28 19.65 397.63 22.51 399.77 25C397.69 28.6 396.37 32.69 396.08 37.07L395.99 68.59C395.99 80.69 403.74 90.96 414.53 94.78C417.43 95.81 420.54 96.4 423.8 96.4C439.16 96.4 451.61 83.95 451.61 68.59H433.07C433.07 73.71 428.92 77.86 423.8 77.86C418.68 77.86 414.53 73.71 414.53 68.59V65.12C417.43 66.15 420.54 66.74 423.8 66.74C439.16 66.74 451.61 54.29 451.61 38.93C451.61 33.84 450.22 29.09 447.84 24.99C449.97 22.5 451.32 19.64 451.61 16.59V0C443.02 2.07 436.37 6.97 433.98 13.07ZM423.8 48.2C418.68 48.2 414.53 44.05 414.53 38.93C414.53 33.81 418.68 29.66 423.8 29.66C428.92 29.66 433.07 33.81 433.07 38.93C433.07 44.05 428.92 48.2 423.8 48.2Z" fill="white"/>
</svg>
