<svg width="287" height="106" viewBox="0 0 287 106" fill="none" xmlns="http://www.w3.org/2000/svg">
<g filter="url(#filter0_d_1936_5719)">
<path d="M152.502 32.9614C144.538 32.9614 138.038 39.3847 137.52 47.5003H137.469L137.469 74.2949H147.491V63.2152C149.062 63.79 150.741 64.1199 152.502 64.1199C160.804 64.1199 167.535 57.1432 167.535 48.538C167.535 39.9328 160.804 32.9561 152.502 32.9561V32.9614ZM152.502 53.7373C149.734 53.7373 147.491 51.4117 147.491 48.5433C147.491 45.6749 149.734 43.3493 152.502 43.3493C155.269 43.3493 157.513 45.6749 157.513 48.5433C157.513 51.4117 155.269 53.7373 152.502 53.7373Z" fill="white"/>
<path d="M116.562 32.9614C108.598 32.9614 102.098 39.3847 101.58 47.5003H101.529L101.529 74.2949H111.551V63.2152C113.122 63.79 114.801 64.1199 116.562 64.1199C124.864 64.1199 131.595 57.1432 131.595 48.538C131.595 39.9328 124.864 32.9561 116.562 32.9561V32.9614ZM116.562 53.7373C113.794 53.7373 111.551 51.4117 111.551 48.5433C111.551 45.6749 113.794 43.3493 116.562 43.3493C119.329 43.3493 121.573 45.6749 121.573 48.5433C121.573 51.4117 119.329 53.7373 116.562 53.7373Z" fill="white"/>
<path d="M42.3147 32.9614C34.3514 32.9614 27.8514 39.3847 27.3328 47.5003H27.2815L27.2815 74.2949H37.3036V63.2152C38.8747 63.79 40.5536 64.1199 42.3147 64.1199C50.6169 64.1199 57.3479 57.1432 57.3479 48.538C57.3479 39.9328 50.6169 32.9561 42.3147 32.9561V32.9614ZM42.3147 53.7373C39.5473 53.7373 37.3036 51.4117 37.3036 48.5433C37.3036 45.6749 39.5473 43.3493 42.3147 43.3493C45.0821 43.3493 47.3258 45.6749 47.3258 48.5433C47.3258 51.4117 45.0821 53.7373 42.3147 53.7373Z" fill="white"/>
<path d="M179.313 42.8972C182.574 42.8972 185.217 40.2763 185.217 37.0433C185.217 33.8103 182.574 31.1895 179.313 31.1895C176.052 31.1895 173.409 33.8103 173.409 37.0433C173.409 40.2763 176.052 42.8972 179.313 42.8972Z" fill="white"/>
<path d="M183.929 47.5H173.907V71.3891H183.929V47.5Z" fill="white"/>
<path d="M94.3867 57.5792V56.5947C94.3867 56.93 94.3559 57.2546 94.3353 57.5792H94.3867Z" fill="white"/>
<path d="M64.3254 57.5792H64.3768C64.3562 57.2493 64.3254 56.9247 64.3254 56.5947V57.5792Z" fill="white"/>
<path d="M84.3646 36.5107V56.5948C84.3646 59.3195 82.1209 61.528 79.3535 61.528C76.5861 61.528 74.3424 59.3195 74.3424 56.5948V36.5107H64.3203V56.5948C64.3203 56.9301 64.3511 57.2547 64.3716 57.5793C64.8902 65.2905 71.3902 71.3891 79.3535 71.3891C87.3168 71.3891 93.8168 65.2905 94.3354 57.5793C94.3559 57.2494 94.3867 56.9248 94.3867 56.5948V36.5107H84.3646Z" fill="white"/>
<path d="M192.447 48.3193V49.3198C192.447 48.9792 192.477 48.6493 192.498 48.3193H192.447Z" fill="white"/>
<path d="M222.508 48.3193H222.456C222.477 48.6546 222.508 48.9845 222.508 49.3198V48.3193Z" fill="white"/>
<path d="M202.977 71.2083V51.5552C202.977 48.7826 205.221 46.5421 207.988 46.5421C210.755 46.5421 212.999 48.7879 212.999 51.5552V71.2083H223.021V51.5552C223.021 51.2146 222.99 50.8847 222.97 50.5547C222.451 42.7158 215.951 36.5107 207.988 36.5107C200.025 36.5107 193.525 42.7158 193.006 50.5547C192.986 50.89 192.955 51.2199 192.955 51.5552V71.2083H202.977Z" fill="white"/>
<path d="M250.099 31.9555C248.477 31.2956 246.721 30.9177 244.873 30.9177C243.024 30.9177 241.263 31.2849 239.646 31.9501C238.419 28.7039 235.005 26.1016 230.594 25V33.8287C230.743 35.4571 231.436 36.9792 232.535 38.3043C231.467 40.2201 230.789 42.3966 230.641 44.7275L230.594 61.5015C230.594 67.9408 234.573 73.4062 240.113 75.4391C241.602 75.9872 243.199 76.3012 244.873 76.3012C252.759 76.3012 259.151 69.6757 259.151 61.5015H249.632C249.632 64.2263 247.502 66.4348 244.873 66.4348C242.244 66.4348 240.113 64.2263 240.113 61.5015V59.6549C241.602 60.203 243.199 60.517 244.873 60.517C252.759 60.517 259.151 53.8915 259.151 45.7174C259.151 43.0086 258.438 40.4808 257.216 38.2989C258.309 36.9738 259.002 35.4518 259.151 33.8287V25C254.741 26.1016 251.327 28.7092 250.099 31.9555ZM244.873 50.6506C242.244 50.6506 240.113 48.4421 240.113 45.7174C240.113 42.9927 242.244 40.7842 244.873 40.7842C247.502 40.7842 249.632 42.9927 249.632 45.7174C249.632 48.4421 247.502 50.6506 244.873 50.6506Z" fill="white"/>
</g>
<defs>
<filter id="filter0_d_1936_5719" x="-23" y="-16" width="332" height="142" filterUnits="userSpaceOnUse" color-interpolation-filters="sRGB">
<feFlood flood-opacity="0" result="BackgroundImageFix"/>
<feColorMatrix in="SourceAlpha" type="matrix" values="0 0 0 0 0 0 0 0 0 0 0 0 0 0 0 0 0 0 127 0" result="hardAlpha"/>
<feOffset dy="2"/>
<feGaussianBlur stdDeviation="13.5"/>
<feComposite in2="hardAlpha" operator="out"/>
<feColorMatrix type="matrix" values="0 0 0 0 1 0 0 0 0 1 0 0 0 0 1 0 0 0 0.55 0"/>
<feBlend mode="normal" in2="BackgroundImageFix" result="effect1_dropShadow_1936_5719"/>
<feBlend mode="normal" in="SourceGraphic" in2="effect1_dropShadow_1936_5719" result="shape"/>
</filter>
</defs>
</svg>
