<svg width="80" height="80" viewBox="0 0 80 80" fill="none" xmlns="http://www.w3.org/2000/svg">
<path d="M39.9997 40.0003C43.6663 40.0003 46.6663 37.0003 46.6663 33.3337C46.6663 29.667 43.6663 26.667 39.9997 26.667C36.333 26.667 33.333 29.667 33.333 33.3337C33.333 37.0003 36.333 40.0003 39.9997 40.0003ZM39.9997 6.66699C53.9997 6.66699 66.6663 17.4003 66.6663 34.0003C66.6663 44.6003 58.4997 57.067 42.1997 71.4337C40.933 72.5337 39.033 72.5337 37.7663 71.4337C21.4997 57.067 13.333 44.6003 13.333 34.0003C13.333 17.4003 25.9997 6.66699 39.9997 6.66699Z" fill="#C24635"/>
</svg>
